<svg version="1.1" xmlns="http://www.w3.org/2000/svg" xmlns:xlink="http://www.w3.org/1999/xlink" width="105.7px" height="122.88px" viewBox="0,0,220.19885,255.99431"><g fill="#565656" fill-rule="nonzero" stroke="none" stroke-width="1" stroke-linecap="butt" stroke-linejoin="miter" stroke-miterlimit="10" stroke-dasharray="" stroke-dashoffset="0" font-family="none" font-weight="none" font-size="none" text-anchor="none" style="mix-blend-mode: normal"><g transform="translate(0.03692,-0.0341) scale(2.08333,2.08333)"><path d="M30.46,14.57v-9.35c0.00413,-1.3796 0.55843,-2.70055 1.54,-3.67v0c0.97087,-0.98676 2.29571,-1.54478 3.68,-1.55h34.32c1.37727,0.00587 2.69641,0.55581 3.67,1.53v0c0.97419,0.97359 1.52413,2.29273 1.53,3.67v9.35h27.08c0.89632,-0.00534 1.75763,0.34768 2.39237,0.98054c0.63475,0.63287 0.99031,1.49312 0.98763,2.38946v11.66c0.01067,0.89645 -0.33524,1.76042 -0.96162,2.40181c-0.62638,0.64139 -1.48192,1.00765 -2.37838,1.01819h-3.81l-8.3,87.22c-0.15738,1.51578 -1.42617,2.67275 -2.95,2.69h-68.83c-1.63752,0.00023 -2.97271,-1.3127 -3,-2.95l-8.24,-86.96h-3.82c-0.90167,-0.0026 -1.76492,-0.36537 -2.39779,-1.00763c-0.63287,-0.64226 -0.98288,-1.51076 -0.97221,-2.41237v-11.64c-0.00267,-0.89459 0.35153,-1.75332 0.98411,-2.38589c0.63258,-0.63258 1.4913,-0.98677 2.38589,-0.98411zM66.73,14.57v-6.06h-27.73v6.06zM49.48,49.25c0,-1.87777 1.52223,-3.4 3.4,-3.4c1.87777,0 3.4,1.52223 3.4,3.4v51.81c0,1.87777 -1.52223,3.4 -3.4,3.4c-1.87777,0 -3.4,-1.52223 -3.4,-3.4zM69.59,49c0.02062,-1.25137 0.72705,-2.39023 1.83896,-2.96467c1.11191,-0.57445 2.44952,-0.49158 3.48203,0.2157c1.03251,0.70729 1.59298,1.92463 1.459,3.16897l-3.37,51.85c-0.19379,1.81017 -1.77902,3.14648 -3.59588,3.03125c-1.81686,-0.11523 -3.22056,-1.64111 -3.18412,-3.46125zM29.33,49.42c-0.11598,-1.86948 1.30552,-3.47902 3.175,-3.595c1.86948,-0.11598 3.47902,1.30552 3.595,3.175l3.41,51.8c0.11874,1.86948 -1.30052,3.48126 -3.17,3.6c-1.86948,0.11874 -3.48126,-1.30052 -3.6,-3.17l-3.41,-51.77zM92.51,33.38h-79.32l7.94,83.55h63.43l8,-83.55z"></path></g></g></svg>